<svg xmlns="http://www.w3.org/2000/svg" viewBox="0 0 320 520" fill="none">
  <defs>
    <linearGradient id="bg" x1="160" y1="40" x2="160" y2="500" gradientUnits="userSpaceOnUse">
      <stop stop-color="#FFE8D6"/>
      <stop offset="0.45" stop-color="#F5C4A0"/>
      <stop offset="1" stop-color="#D4956A"/>
    </linearGradient>
    <linearGradient id="cloth" x1="100" y1="280" x2="220" y2="420">
      <stop stop-color="#FFF8F2"/>
      <stop offset="1" stop-color="#E8DDD4"/>
    </linearGradient>
    <radialGradient id="light" cx="0.35" cy="0.15" r="0.55">
      <stop stop-color="#fff" stop-opacity="0.55"/>
      <stop offset="1" stop-color="#fff" stop-opacity="0"/>
    </radialGradient>
  </defs>
  <ellipse cx="160" cy="480" rx="90" ry="16" fill="#C4A882" opacity="0.25"/>
  <path d="M118 155c0-42 18-68 42-68s42 26 42 68c0 22-8 38-18 48-12 12-24 18-24 18s-12-6-24-18c-10-10-18-26-18-48z" fill="url(#bg)"/>
  <ellipse cx="160" cy="118" rx="38" ry="42" fill="url(#bg)"/>
  <ellipse cx="160" cy="108" rx="38" ry="42" fill="url(#light)"/>
  <path d="M108 200c-18 8-28 42-24 88 4 52 20 96 52 118 32 22 76 22 108 0 32-22 48-66 52-118 4-46-6-80-24-88-16-8-36-12-56-12s-40 4-56 12z" fill="url(#cloth)"/>
  <path d="M132 268c8 24 48 24 56 0" stroke="#D4C4B8" stroke-width="3" stroke-linecap="round" opacity="0.5"/>
</svg>
