<svg xmlns="http://www.w3.org/2000/svg" viewBox="0 0 320 580" fill="none">
  <defs>
    <linearGradient id="skin" x1="160" y1="60" x2="160" y2="520">
      <stop stop-color="#F0D0B0"/>
      <stop offset="1" stop-color="#C89068"/>
    </linearGradient>
    <linearGradient id="shirt" x1="90" y1="260" x2="230" y2="480">
      <stop stop-color="#E8F4F8"/>
      <stop offset="1" stop-color="#B8D4DC"/>
    </linearGradient>
    <radialGradient id="hl" cx="0.3" cy="0.12" r="0.5">
      <stop stop-color="#fff" stop-opacity="0.5"/>
      <stop offset="1" stop-opacity="0"/>
    </radialGradient>
  </defs>
  <ellipse cx="160" cy="548" rx="72" ry="14" fill="#9A8878" opacity="0.2"/>
  <ellipse cx="160" cy="95" rx="44" ry="48" fill="url(#skin)"/>
  <ellipse cx="160" cy="88" rx="44" ry="48" fill="url(#hl)"/>
  <path d="M100 175c-12 6-22 38-18 82 4 48 16 120 16 168 0 28 24 52 62 52s62-24 62-52c0-48 12-120 16-168 4-44-6-76-18-82-14-8-34-14-62-14s-48 6-62 14z" fill="url(#shirt)"/>
  <path d="M88 220c-24 12-36 48-32 88 4 36 16 64 32 64" stroke="url(#skin)" stroke-width="22" stroke-linecap="round"/>
  <path d="M232 220c24 12 36 48 32 88-4 36-16 64-32 64" stroke="url(#skin)" stroke-width="22" stroke-linecap="round"/>
  <path d="M118 300c-8 48 8 96 42 120 34-24 50-72 42-120" stroke="#A8C8D0" stroke-width="2" opacity="0.35"/>
</svg>
