<svg xmlns="http://www.w3.org/2000/svg" viewBox="0 0 340 560" fill="none">
  <defs>
    <linearGradient id="skin" x1="170" y1="80" x2="170" y2="520">
      <stop stop-color="#F0D4B8"/>
      <stop offset="1" stop-color="#C89878"/>
    </linearGradient>
    <linearGradient id="pajama" x1="100" y1="280" x2="240" y2="480">
      <stop stop-color="#E8EAF6"/>
      <stop offset="1" stop-color="#C5CAE9"/>
    </linearGradient>
    <radialGradient id="moon" cx="0.82" cy="0.12" r="0.2">
      <stop stop-color="#FFF8E1"/>
      <stop offset="1" stop-color="#FFE082" stop-opacity="0"/>
    </radialGradient>
    <radialGradient id="hl" cx="0.35" cy="0.15" r="0.45">
      <stop stop-color="#fff" stop-opacity="0.4"/>
      <stop offset="1" stop-opacity="0"/>
    </radialGradient>
  </defs>
  <circle cx="280" cy="60" r="36" fill="url(#moon)" opacity="0.7"/>
  <ellipse cx="170" cy="520" rx="100" ry="20" fill="#8A7898" opacity="0.15"/>
  <ellipse cx="170" cy="130" rx="42" ry="44" fill="url(#skin)" transform="rotate(-8 170 130)"/>
  <ellipse cx="170" cy="124" rx="42" ry="44" fill="url(#hl)" transform="rotate(-8 170 130)"/>
  <path d="M95 195c-20 30-28 80-20 140 8 60 28 120 75 140 47-20 67-80 75-140 8-60 0-110-20-140-18-28-48-44-85-44s-67 16-85 44z" fill="url(#pajama)" transform="rotate(-5 170 280)"/>
  <path d="M70 240c-16 40-12 88 8 120" stroke="url(#skin)" stroke-width="20" stroke-linecap="round"/>
  <path d="M270 250c16 36 12 84-8 116" stroke="url(#skin)" stroke-width="20" stroke-linecap="round"/>
</svg>
