<svg xmlns="http://www.w3.org/2000/svg" viewBox="0 0 360 620" fill="none">
  <defs>
    <linearGradient id="skin" x1="180" y1="50" x2="180" y2="560">
      <stop stop-color="#E8C4A0"/>
      <stop offset="1" stop-color="#B88860"/>
    </linearGradient>
    <linearGradient id="shirt" x1="110" y1="240" x2="250" y2="480">
      <stop stop-color="#5A8A96"/>
      <stop offset="1" stop-color="#3A6878"/>
    </linearGradient>
    <radialGradient id="hl" cx="0.35" cy="0.1" r="0.45">
      <stop stop-color="#fff" stop-opacity="0.45"/>
      <stop offset="1" stop-opacity="0"/>
    </radialGradient>
    <radialGradient id="brainGlow" cx="0.5" cy="0.15" r="0.35">
      <stop stop-color="#00A896" stop-opacity="0.25"/>
      <stop offset="1" stop-opacity="0"/>
    </radialGradient>
  </defs>
  <ellipse cx="180" cy="590" rx="80" ry="14" fill="#6A5848" opacity="0.18"/>
  <ellipse cx="180" cy="88" rx="46" ry="50" fill="url(#skin)"/>
  <ellipse cx="180" cy="80" rx="46" ry="50" fill="url(#hl)"/>
  <ellipse cx="180" cy="75" rx="70" ry="55" fill="url(#brainGlow)"/>
  <path d="M108 168c-14 8-24 42-20 88 4 52 14 140 14 200 0 32 26 58 78 58s78-26 78-58c0-60 10-148 14-200 4-46-6-80-20-88-16-10-40-16-72-16s-56 6-72 16z" fill="url(#shirt)"/>
  <path d="M82 210c-28 16-40 56-36 104 4 40 18 72 36 72" stroke="url(#skin)" stroke-width="24" stroke-linecap="round"/>
  <path d="M278 210c28 16 40 56 36 104-4 40-18 72-36 72" stroke="url(#skin)" stroke-width="24" stroke-linecap="round"/>
</svg>
